<svg viewBox="0 0 512 512" xmlns="http://www.w3.org/2000/svg">
  <path d="4 . 5 0 L 35 1 H 0 a 1 2 2 3 h 3 l -. 25 6 A 11 . 15 6 9 4 7 5 z M 16 17 v 11 16 8 12 13 31 10 28 22 25 19 21 27 29 15 32 18 14 23 24 33 26 Z 35 40 37 z M 30 20 34 36 39 38 47 48 43 50 42 44 41 45 52 49 46 54 53 51 58 59 56 55 70 61 48 054688 292 3499 29 07 249 640 12 796875 A A 22 v l a c 486 c 449 4244 6108 426 39 s 18 135 93 C A l 3348 Z z 206 14285714 9142 34 a c 46 698 5976 44772 45 C 589 32 991 m l s 008 17 9499 4129 05 833 8045 0118 978" fill="none" stroke="red" stroke-width="1.5" stroke-linecap="round" />
</svg>